PathFileType	4	(X/Y/Z)	OpenSim_Sub02_CSStiffKnee_Magnet.trc
DataRate	CameraRate	NumFrames	NumMarkers	Units	OrigDataRate	OrigDataStartFrame	OrigNumFrames
100	100	30	8	m	100	1	6891
Frame#	Time	torso_imu_offset_imu	pelvis_imu_offset_imu	tibia_r_imu_offset_imu	femur_r_imu_offset_imu	tibia_l_imu_offset_imu	femur_l_imu_offset_imu	toes_r_imu_offset_imu	toes_l_imu_offset_imu
				X1	Y1	Z1	X2	Y2	Z2	X3	Y3	Z3	X4	Y4	Z4	X5	Y5	Z5	X6	Y6	Z6	X7	Y7	Z7	X8		Y8	Z8	

1	0	-0.93567488	-0.22867207	-0.03156747	-0.68278471	0.26715082	-0.59325380	-0.49439118	-0.52949822	-0.43302542	-0.75136155	-0.40545786	-0.00242497	-0.64557852	0.54050790	0.02197605	-0.61081912	0.20973750	0.26092131	-0.52468387	-0.51420927	-0.50664441	-0.64619432	-0.16058780	-0.52058620
2	0.01000000	-0.93195505	-0.22732301	-0.03164866	-0.68194787	0.26621916	-0.60340007	-0.49054190	-0.53196907	-0.43504714	-0.75058061	-0.40845947	-0.00562419	-0.64818879	0.53438712	0.02368026	-0.60506355	0.21314038	0.25166257	-0.53018412	-0.51414771	-0.50926585	-0.64400608	-0.16871522	-0.51709809
3	0.02000000	-0.93422411	-0.22082901	-0.02946111	-0.68448564	0.26521144	-0.59481534	-0.48542491	-0.53434889	-0.43335262	-0.75355401	-0.40515483	-0.00275533	-0.64860216	0.53207343	0.02542742	-0.59955674	0.20821810	0.25696770	-0.52831859	-0.51175528	-0.50799868	-0.64609195	-0.16558567	-0.51455839
4	0.03000000	-0.93592113	-0.22046366	-0.02782784	-0.67945182	0.26900419	-0.59438539	-0.48791398	-0.53495292	-0.43743212	-0.75040139	-0.40879661	-0.00082985	-0.64585020	0.53600491	0.02246982	-0.60311184	0.20639776	0.26019846	-0.52970600	-0.51323123	-0.51220308	-0.64409022	-0.16616297	-0.51786851
5	0.04000000	-0.94212198	-0.22808313	-0.03068793	-0.68685894	0.26566361	-0.59691071	-0.48762705	-0.53165327	-0.43487480	-0.75306274	-0.40407613	-0.00145282	-0.64915611	0.53324529	0.02421348	-0.60664879	0.20809045	0.24994995	-0.52590076	-0.51560020	-0.50758348	-0.64669132	-0.16585846	-0.51412941
6	0.05000000	-0.93211076	-0.23210524	-0.03040567	-0.68642136	0.26200495	-0.59909874	-0.48781269	-0.53323184	-0.43549036	-0.74926662	-0.40576739	-0.00054039	-0.64535757	0.53432047	0.02716129	-0.60334825	0.21316005	0.25618860	-0.52794081	-0.51337801	-0.50541254	-0.64922262	-0.16651678	-0.51884917
7	0.06000000	-0.93370339	-0.22781374	-0.02593936	-0.68063869	0.26318307	-0.60111312	-0.49030237	-0.52897070	-0.43780216	-0.75776063	-0.40860441	0.00041243	-0.64979580	0.53914306	0.02251231	-0.60004408	0.20869674	0.25646577	-0.52594104	-0.51993679	-0.51511780	-0.64961179	-0.16789654	-0.51808967
8	0.07000000	-0.93987987	-0.22501049	-0.03170333	-0.68118606	0.26745786	-0.60070017	-0.49207070	-0.53269398	-0.43703167	-0.75001016	-0.40423234	-0.00290332	-0.64770272	0.54284286	0.02242530	-0.60591240	0.21197021	0.25275695	-0.52843758	-0.51437947	-0.50414347	-0.64379821	-0.16632409	-0.51867573
9	0.08000000	-0.93081961	-0.21985634	-0.02861847	-0.68154470	0.26577609	-0.59822627	-0.49151656	-0.53513262	-0.43491363	-0.75346965	-0.40531715	0.00052196	-0.64615280	0.53830178	0.02040162	-0.60833758	0.21311515	0.25472320	-0.52762219	-0.51861154	-0.50580196	-0.64614078	-0.16773650	-0.52081710
10	0.09000000	-0.93013776	-0.22480375	-0.03370384	-0.68285944	0.26305790	-0.59526378	-0.48883650	-0.53146452	-0.43533142	-0.74812193	-0.40652136	-0.00302667	-0.64098317	0.53184918	0.02097068	-0.60431802	0.21097465	0.25279727	-0.52578596	-0.51569280	-0.50865159	-0.64326926	-0.16339396	-0.51994384
11	0.10000000	-0.93269172	-0.22676799	-0.02717884	-0.68133532	0.26597302	-0.59542591	-0.48893609	-0.53384230	-0.43503797	-0.75492559	-0.40471320	0.00079845	-0.64884826	0.53899825	0.02104360	-0.60312406	0.21120509	0.25507226	-0.52563284	-0.51401602	-0.51089735	-0.64233158	-0.16384592	-0.51494887
12	0.11000000	-0.93311396	-0.23105743	-0.02981180	-0.68302349	0.26016868	-0.59969577	-0.49594970	-0.53420303	-0.43499562	-0.75382604	-0.40768128	-0.00026366	-0.65237714	0.53728114	0.02323747	-0.59760301	0.21172841	0.25508680	-0.52700745	-0.51432994	-0.50516389	-0.64711023	-0.16414797	-0.51551749
13	0.12000000	-0.93080250	-0.22953283	-0.02983954	-0.68087481	0.26658790	-0.59150204	-0.49102607	-0.53477040	-0.43533551	-0.75467222	-0.40766871	0.00188424	-0.65047073	0.53668465	0.02298752	-0.60371501	0.21364026	0.25384336	-0.53241270	-0.51402240	-0.51102806	-0.64814557	-0.16621561	-0.52295718
14	0.13000000	-0.93901069	-0.22658515	-0.03221596	-0.68182060	0.27000915	-0.59666500	-0.48890421	-0.52878549	-0.43439500	-0.75273422	-0.40000520	-0.00529172	-0.64567403	0.53989135	0.02303547	-0.60640158	0.21298463	0.25140143	-0.53012199	-0.51215340	-0.51274955	-0.64606472	-0.16596020	-0.51781976
15	0.14000000	-0.93533803	-0.23124880	-0.02772663	-0.68342347	0.26533513	-0.59381223	-0.48579268	-0.53291430	-0.43090786	-0.74612362	-0.40373170	0.00330846	-0.64924397	0.53572843	0.02594302	-0.60483683	0.21473039	0.25692680	-0.52928880	-0.51550579	-0.50751047	-0.64614334	-0.16603957	-0.51798686
16	0.15000000	-0.93333818	-0.23243625	-0.02421085	-0.68360070	0.27055473	-0.59749669	-0.49029929	-0.53819586	-0.43583940	-0.75264781	-0.40665205	-0.00110041	-0.64559615	0.53852235	0.02749114	-0.60603456	0.21576729	0.25252843	-0.52596770	-0.51774688	-0.51240131	-0.64303871	-0.16597752	-0.51637100
17	0.16000000	-0.93214981	-0.23253828	-0.03142278	-0.68560358	0.26437041	-0.60103651	-0.49175037	-0.53430960	-0.43758396	-0.75230981	-0.40465298	0.00392229	-0.64967495	0.53755572	0.02714085	-0.60215044	0.20795645	0.25548273	-0.52796533	-0.51431656	-0.51008134	-0.64297992	-0.16614635	-0.51806031
18	0.17000000	-0.93368480	-0.23190943	-0.02481086	-0.68519927	0.26639821	-0.59730479	-0.48840724	-0.52874359	-0.43659893	-0.75449600	-0.40822287	0.00354605	-0.64767619	0.53604465	0.02466199	-0.60418426	0.21740357	0.25463709	-0.52577602	-0.51578266	-0.50293687	-0.64748162	-0.16551549	-0.51640056
19	0.18000000	-0.93182871	-0.22726513	-0.02731464	-0.68257961	0.26157501	-0.59438561	-0.48710898	-0.52976577	-0.42964310	-0.75315924	-0.41024520	0.00277824	-0.64920209	0.53846824	0.02341353	-0.60270996	0.20848356	0.25541138	-0.52910634	-0.51253153	-0.50911079	-0.63927661	-0.16417745	-0.51785105
20	0.19000000	-0.93508718	-0.22708848	-0.02555691	-0.68103665	0.26420143	-0.59843834	-0.49672863	-0.53171900	-0.42954700	-0.74978777	-0.40468523	-0.00111305	-0.64106871	0.53745594	0.02433673	-0.61019586	0.21077639	0.25715728	-0.53218549	-0.51651401	-0.51080075	-0.64489131	-0.16931475	-0.51344677
21	0.20000000	-0.93824374	-0.23276682	-0.02711397	-0.68161715	0.27085079	-0.59366789	-0.49342012	-0.53119737	-0.43586923	-0.75305067	-0.41006493	0.00097209	-0.64048282	0.53651545	0.02155604	-0.60960374	0.20692357	0.25490808	-0.52964301	-0.51410171	-0.50507547	-0.64555491	-0.16928227	-0.51410811
22	0.21000000	-0.93544378	-0.23316122	-0.02532151	-0.68409301	0.26652656	-0.59415255	-0.49409226	-0.53248874	-0.43529209	-0.75578530	-0.41023865	-0.00462400	-0.64943968	0.54041093	0.02739846	-0.60423359	0.21199065	0.25466392	-0.53055942	-0.51450307	-0.50813287	-0.64442984	-0.16367611	-0.51361678
23	0.22000000	-0.93357229	-0.23657251	-0.02691536	-0.68481888	0.26863080	-0.59381083	-0.49357121	-0.53483616	-0.43433143	-0.75501238	-0.40382100	-0.00471369	-0.64371756	0.53752782	0.02203238	-0.61024548	0.20992043	0.25209789	-0.53202111	-0.51431001	-0.51002169	-0.64569221	-0.16602419	-0.51497350
24	0.23000000	-0.93443748	-0.23169201	-0.02530457	-0.68133468	0.26689326	-0.59458767	-0.49166905	-0.52954331	-0.43080343	-0.75748635	-0.40312524	0.00122310	-0.65254501	0.53535737	0.02067453	-0.60897328	0.20800086	0.25045759	-0.52984739	-0.51469651	-0.51163423	-0.64164666	-0.16345236	-0.52121797
25	0.24000000	-0.93541628	-0.23009568	-0.02748820	-0.68649371	0.26824352	-0.59592459	-0.49201232	-0.53443344	-0.43337365	-0.74951887	-0.40499789	0.00223794	-0.64897117	0.53377376	0.02132020	-0.59963030	0.21598968	0.25390763	-0.52987309	-0.51665585	-0.50886900	-0.64480814	-0.16421732	-0.51980993
26	0.25000000	-0.93192850	-0.22799382	-0.02769882	-0.68365388	0.26474610	-0.59076100	-0.49434625	-0.53270896	-0.43563294	-0.75255690	-0.40459325	0.00727929	-0.64688192	0.53658193	0.01944285	-0.60570020	0.20947391	0.25676856	-0.52748876	-0.51580458	-0.50784643	-0.64598003	-0.16633176	-0.51888373
27	0.26000000	-0.93403062	-0.22869802	-0.02950662	-0.67767848	0.26649565	-0.59333756	-0.49323614	-0.52940691	-0.43746510	-0.75232631	-0.40535670	0.00037250	-0.64566590	0.53783327	0.01771471	-0.60840557	0.20802007	0.25270190	-0.52590170	-0.51454171	-0.51325973	-0.64384317	-0.16540867	-0.52352966
28	0.27000000	-0.93157245	-0.23058551	-0.02663457	-0.68616412	0.26173287	-0.60193808	-0.48995825	-0.53143880	-0.43449561	-0.75466538	-0.40640046	0.00098847	-0.64687188	0.53573244	0.02450650	-0.60697131	0.21259807	0.25464060	-0.52908018	-0.51582391	-0.51429095	-0.64402818	-0.16441931	-0.51806768
29	0.28000000	-0.93213006	-0.23066421	-0.02539856	-0.68523487	0.26356234	-0.59921053	-0.49136565	-0.53272779	-0.43378315	-0.75665764	-0.40275262	-0.00126888	-0.64303379	0.53569387	0.02031384	-0.60814003	0.20730650	0.25318271	-0.53216441	-0.51212575	-0.50481026	-0.64390584	-0.16841898	-0.50941448
30	0.29000000	-0.93456281	-0.23291715	-0.02371788	-0.68511064	0.26576388	-0.59460594	-0.48764248	-0.53738023	-0.43718484	-0.75563349	-0.40503376	0.00177627	-0.64916540	0.53644742	0.03187554	-0.60426843	0.21347065	0.25356038	-0.52975346	-0.51478164	-0.51117378	-0.64744443	-0.16517126	-0.51735281
